{
  "accessors": [
    {
      "bufferView": 2,
      "componentType": 5126,
      "count": 1232,
      "max": [
        0.18079832196235657,
        0.26055416464805603,
        0.6019942164421082
      ],
      "min": [
        -0.1782812774181366,
        -0.25997647643089294,
        -0.5874965786933899
      ],
      "type": "VEC3"
    },
    {
      "bufferView": 2,
      "byteOffset": 14784,
      "componentType": 5126,
      "count": 1232,
      "max": [
        0.9999659657478333,
        0.9995019435882568,
        0.9926466345787048
      ],
      "min": [
        -0.99996018409729,
        -0.9998811483383179,
        -0.9947214126586914
      ],
      "type": "VEC3"
    },
    {
      "bufferView": 3,
      "componentType": 5126,
      "count": 1232,
      "max": [
        0.999997615814209,
        0.9999454021453857,
        0.9973382353782654,
        1.0
      ],
      "min": [
        -0.9990246295928955,
        -0.9999629855155945,
        -0.8904264569282532,
        1.0
      ],
      "type": "VEC4"
    },
    {
      "bufferView": 1,
      "componentType": 5126,
      "count": 1232,
      "max": [
        1.0,
        0.8735219836235046
      ],
      "min": [
        0.0,
        0.0
      ],
      "type": "VEC2"
    },
    {
      "bufferView": 1,
      "byteOffset": 9856,
      "componentType": 5126,
      "count": 1232,
      "max": [
        1.0,
        0.8735219836235046
      ],
      "min": [
        0.0,
        0.0
      ],
      "type": "VEC2"
    },
    {
      "bufferView": 1,
      "byteOffset": 19712,
      "componentType": 5126,
      "count": 1232,
      "max": [
        1.0,
        0.8735219836235046
      ],
      "min": [
        0.0,
        0.0
      ],
      "type": "VEC2"
    },
    {
      "bufferView": 0,
      "componentType": 5125,
      "count": 5124,
      "type": "SCALAR"
    }
  ],
  "asset": {
    "extras": {
      "author": "plaggy (https://sketchfab.com/plaggy)",
      "license": "SKETCHFAB Standard (https://sketchfab.com/licenses)",
      "source": "https://sketchfab.com/3d-models/hot-dog-ab60a7f917f84c0b9447f24d61d2af24",
      "title": "Hot Dog"
    },
    "generator": "Sketchfab-16.7.0",
    "version": "2.0"
  },
  "bufferViews": [
    {
      "buffer": 0,
      "byteLength": 20496,
      "name": "floatBufferViews",
      "target": 34963
    },
    {
      "buffer": 0,
      "byteLength": 29568,
      "byteOffset": 20496,
      "byteStride": 8,
      "name": "floatBufferViews",
      "target": 34962
    },
    {
      "buffer": 0,
      "byteLength": 29568,
      "byteOffset": 50064,
      "byteStride": 12,
      "name": "floatBufferViews",
      "target": 34962
    },
    {
      "buffer": 0,
      "byteLength": 19712,
      "byteOffset": 79632,
      "byteStride": 16,
      "name": "floatBufferViews",
      "target": 34962
    }
  ],
  "buffers": [
    {
      "byteLength": 99344,
      "uri": "scene.bin"
    }
  ],
  "images": [
    {
      "uri": "textures/HotDog_baseColor.png"
    },
    {
      "uri": "textures/HotDog_metallicRoughness.png"
    },
    {
      "uri": "textures/HotDog_normal.png"
    }
  ],
  "materials": [
    {
      "name": "HotDog",
      "normalTexture": {
        "index": 2
      },
      "occlusionTexture": {
        "index": 1
      },
      "pbrMetallicRoughness": {
        "baseColorTexture": {
          "index": 0
        },
        "metallicRoughnessTexture": {
          "index": 1
        }
      }
    }
  ],
  "meshes": [
    {
      "name": "HotDog_HotDog_0",
      "primitives": [
        {
          "attributes": {
            "NORMAL": 1,
            "POSITION": 0,
            "TANGENT": 2,
            "TEXCOORD_0": 3,
            "TEXCOORD_1": 4,
            "TEXCOORD_2": 5
          },
          "indices": 6,
          "material": 0,
          "mode": 4
        }
      ]
    }
  ],
  "nodes": [
    {
      "children": [
        1
      ],
      "matrix": [
        1.0,
        0.0,
        0.0,
        0.0,
        0.0,
        2.220446049250313e-16,
        -1.0,
        0.0,
        0.0,
        1.0,
        2.220446049250313e-16,
        0.0,
        0.0,
        0.0,
        0.0,
        1.0
      ],
      "name": "Sketchfab_model"
    },
    {
      "children": [
        2
      ],
      "matrix": [
        0.02539999969303608,
        0.0,
        0.0,
        0.0,
        0.0,
        0.0,
        0.02539999969303608,
        0.0,
        0.0,
        -0.02539999969303608,
        0.0,
        0.0,
        0.0,
        0.0,
        0.0,
        1.0
      ],
      "name": "8f2e4cb9998647f898e70bd9c3cc1ee9.fbx"
    },
    {
      "children": [
        3
      ],
      "name": "RootNode"
    },
    {
      "children": [
        4
      ],
      "matrix": [
        3.1663658437619477,
        3.7735276006155125,
        5.468948162681787e-16,
        0.0,
        -5.468948162681787e-16,
        1.0937896325363575e-15,
        -4.925990581512451,
        0.0,
        -3.7735276006155125,
        3.166365843761948,
        1.0937896325363575e-15,
        0.0,
        0.0,
        0.0,
        -4.390112007968128e-05,
        1.0
      ],
      "name": "HotDog"
    },
    {
      "mesh": 0,
      "name": "HotDog_HotDog_0"
    }
  ],
  "samplers": [
    {
      "magFilter": 9729,
      "minFilter": 9987,
      "wrapS": 10497,
      "wrapT": 10497
    }
  ],
  "scene": 0,
  "scenes": [
    {
      "name": "Sketchfab_Scene",
      "nodes": [
        0
      ]
    }
  ],
  "textures": [
    {
      "sampler": 0,
      "source": 0
    },
    {
      "sampler": 0,
      "source": 1
    },
    {
      "sampler": 0,
      "source": 2
    }
  ]
}
